<svg xmlns="http://www.w3.org/2000/svg" viewBox="0 0 64.02 56.56"><defs><style>.cls-1{fill:#f2d5c4;}</style></defs><g id="Layer_2" data-name="Layer 2"><g id="Layer_1-2" data-name="Layer 1"><path class="cls-1" d="M59.35,5.56A16.21,16.21,0,0,0,47,0C40.27,0,36,4,33.6,7.41A24.1,24.1,0,0,0,32,10a25.83,25.83,0,0,0-1.59-2.58C28,4,23.75,0,17,0A16.21,16.21,0,0,0,4.67,5.56,19.38,19.38,0,0,0,0,18.44C0,23.77,2.08,28.73,6.54,34c4,4.74,9.74,9.63,16.38,15.3,2.48,2.11,5,4.29,7.77,6.68l.08.07a1.9,1.9,0,0,0,1.24.47,1.86,1.86,0,0,0,1.23-.47l.09-.07c2.72-2.39,5.29-4.57,7.76-6.68C47.74,43.67,53.48,38.78,57.47,34,61.94,28.73,64,23.77,64,18.44A19.38,19.38,0,0,0,59.35,5.56ZM38.66,46.48c-2.14,1.82-4.33,3.7-6.65,5.71-2.32-2-4.52-3.89-6.65-5.71-13-11.08-21.61-18.41-21.61-28A15.67,15.67,0,0,1,7.48,8,12.51,12.51,0,0,1,17,3.75c5.15,0,8.47,3.17,10.35,5.83a22.47,22.47,0,0,1,2.88,5.71,1.87,1.87,0,0,0,3.56,0,22,22,0,0,1,2.87-5.71C38.55,6.92,41.87,3.75,47,3.75A12.48,12.48,0,0,1,56.53,8a15.63,15.63,0,0,1,3.74,10.4C60.27,28.07,51.67,35.4,38.66,46.48Z"/><path class="cls-1" d="M22.36,21.8a3,3,0,1,1,3,3A3,3,0,0,1,22.36,21.8Zm13.71,0a3,3,0,1,1,3,3A3,3,0,0,1,36.07,21.8Zm7.15,12.39A12.08,12.08,0,0,1,32,41.33a12,12,0,0,1-11.25-7.18,1.46,1.46,0,0,1,.79-1.91,1.36,1.36,0,0,1,.56-.11,1.46,1.46,0,0,1,1.35.9A9.08,9.08,0,0,0,32,38.4,9.17,9.17,0,0,0,40.54,33a1.46,1.46,0,0,1,2.68,1.16Z"/></g></g></svg>