<svg xmlns="http://www.w3.org/2000/svg" viewBox="0 0 32.17 32.17"><defs><style>.cls-1{fill:#f2d5c4;}</style></defs><g id="圖層_2" data-name="圖層 2"><g id="Layer_1" data-name="Layer 1"><g id="Group_16" data-name="Group 16"><g id="Group_15" data-name="Group 15"><path id="Path_11" data-name="Path 11" class="cls-1" d="M24.6,5.74a1.89,1.89,0,1,0,1.89,1.89h0A1.89,1.89,0,0,0,24.6,5.74Z"/><path id="Path_12" data-name="Path 12" class="cls-1" d="M16.22,8.16a7.93,7.93,0,1,0,7.92,7.93A7.92,7.92,0,0,0,16.22,8.16Zm0,13a5.08,5.08,0,1,1,5.07-5.08h0a5.08,5.08,0,0,1-5.07,5.08Z"/><path id="Path_13" data-name="Path 13" class="cls-1" d="M22.51,32.17H9.66A9.67,9.67,0,0,1,0,22.51V9.66A9.68,9.68,0,0,1,9.66,0H22.51a9.67,9.67,0,0,1,9.66,9.66V22.51A9.66,9.66,0,0,1,22.51,32.17ZM9.66,3A6.63,6.63,0,0,0,3,9.67V22.51a6.65,6.65,0,0,0,6.63,6.64H22.51a6.66,6.66,0,0,0,6.64-6.64V9.66A6.65,6.65,0,0,0,22.51,3Z"/></g></g></g></g></svg>