<svg xmlns="http://www.w3.org/2000/svg" viewBox="0 0 202.67 150.95"><defs><style>.cls-1,.cls-4{fill:none;stroke:#f2d5c4;}.cls-1{stroke-width:3px;}.cls-2{isolation:isolate;}.cls-3{fill:#f2d5c4;}.cls-4{stroke-linecap:round;stroke-linejoin:round;stroke-width:2px;}</style></defs><g id="圖層_2" data-name="圖層 2"><g id="Layer_1" data-name="Layer 1"><path id="Path_32" data-name="Path 32" class="cls-1" d="M199.36,114.65c3.09-14.51,2.2-32.67-2.47-45.83a104.06,104.06,0,0,0-35.2-47.38,99.44,99.44,0,0,0-151.41,41c-8,19.16-13.46,43.53-3,62.87a46.44,46.44,0,0,0,24.52,20.45c15,5.72,27.15,3.3,42.11,1.61a186.21,186.21,0,0,1,31.41-.89c22.27,1.25,55.35,7.93,75.39-4.32a40,40,0,0,0,17.25-22C198.48,118.39,199,116.55,199.36,114.65Z"/><g id="晨食烘培" class="cls-2"><g class="cls-2"><path class="cls-3" d="M55.21,100.72c-.25.36-.58.46-1.33.25a35.17,35.17,0,0,1-5.11,2.55,32.66,32.66,0,0,0,10,2.85l0,.36a3.22,3.22,0,0,0-2.37,2.63c-6.66-1.77-11.63-4.79-14.19-10.7h-4v7c1.8-.39,3.93-.9,6.09-1.44l.1.51c-1.58.86-4.53,2.52-7.81,4.17a2,2,0,0,1-.72.76l-2-3.2c1.33-.72,1.51-1,1.51-1.59V98.66H32a14.69,14.69,0,0,1-6.05,11l-.4-.4c3.39-4.24,3.75-9.46,3.75-14.11v-6.3l3.38,1.34h20L54.45,88s2,1.59,3.28,2.74c-.11.4-.47.58-1,.58H32.14v2.55H49.92l1.65-1.94s1.88,1.37,3.1,2.44c-.11.4-.47.58-1,.58H32.14v.25c0,.76,0,1.55-.07,2.42H53.59l1.76-2.06s2,1.44,3.24,2.56c-.1.39-.46.57-1,.57H52.11ZM34,88.33c0,.29-1.3.9-2.45.9h-.39V76.92l3,1.3H50.35l1.48-1.62,3.27,2.45a2.76,2.76,0,0,1-1.51.75v8.07a4.39,4.39,0,0,1-2.45.79h-.43V87.29H34Zm0-9.07v2.92h16.7V79.26Zm16.7,7v-3H34v3ZM43,98.66A13.55,13.55,0,0,0,47.83,103,35.32,35.32,0,0,0,52,98.66Z"/><path class="cls-3" d="M84.88,77.18c-.15.43-.58.64-1.59.64,2.92,4.25,9.5,7.24,15,8.35l-.08.47A3.14,3.14,0,0,0,95.82,89,24.36,24.36,0,0,1,82.72,78.4,46.12,46.12,0,0,1,65.44,90l-.33-.46C71.67,86.1,77.64,80.38,80.41,76Zm6,21.81c.29-.33.58-.61.79-.86l3.46,2.37c-.29.32-.58.47-1.37.22a31,31,0,0,1-5.43,2.3c9.75,3.92,6.12,7.74,3.52,5.76-2.66-2.45-7.63-5.54-14.14-8.14l.21-.57a57.89,57.89,0,0,1,8.93,2.45,40.7,40.7,0,0,0,3.67-3.17,4.43,4.43,0,0,1-2,.65H88V98.66H75.16v7.24c2-.58,4.46-1.33,7-2.09l.14.51c-1.9,1.08-5.29,3.06-9,5a1.54,1.54,0,0,1-.54.54l-2-2.67c1.4-.93,1.62-1.19,1.62-1.83V87.54l.11-.14,3.13,1.29H87.68l1.44-1.51,3.06,2.31a2.28,2.28,0,0,1-1.26.61ZM88,93.19V89.74H75.16v3.45Zm0,4.43V94.24H75.16v3.38Zm-3.53-14.9a31.82,31.82,0,0,1,2.88,2.55c-.11.4-.43.58-.94.58H77l-.25-1.08h6.15Z"/><path class="cls-3" d="M118.21,84.55a1.12,1.12,0,0,1-1.29.54,48.51,48.51,0,0,1-5,5.94,58.18,58.18,0,0,1-.54,6.41c7.56,4.18,5.4,9.36,2.88,7.34a16.26,16.26,0,0,0-3.1-6.19c-.86,4.68-2.66,8.32-6.37,11.16l-.5-.61c5.93-6.48,5.11-16.27,5.11-32.54l4,.43c-.11.51-.47.87-1.3,1,0,4.29,0,8.1-.07,11.52,1.08-2.27,2.23-5.07,2.77-6.62ZM104.89,83c6.09,5.91,3.71,11.34,1.48,9a28.1,28.1,0,0,0-1.94-8.82Zm10,26.1a29.25,29.25,0,0,0,6.84-10.22l4,1.87c-.18.36-.58.43-1.26.32a27.13,27.13,0,0,1-9.29,8.5Zm20.23-15.26s2,1.62,3.2,2.8c-.11.4-.47.58-1,.58H115.76l-.28-1h5.61V86.86h-3.81l-.29-1h4.1v-9.1l4,.43c-.11.5-.43.86-1.33,1v7.66H129v-9.1l4,.43c-.08.5-.4.86-1.3,1v7.66h1.19l1.65-2.26s1.95,1.58,3.1,2.73a.82.82,0,0,1-.9.58h-5v9.36h1.69Zm-11.38,2.34H129V86.86h-5.18Zm4.68,3.27c11.81,4.5,10.08,11.7,6.77,9.61-1.05-3.06-4.47-6.94-7.13-9.32Z"/><path class="cls-3" d="M151.48,98.92c1.65-.44,3.45-.94,5.22-1.44l.14.46c-2.23,1.34-5.47,3.17-10,5.48a1.2,1.2,0,0,1-.79.9l-1.87-3.6c1-.18,2.63-.54,4.57-1V87.94h-4.17l-.29-1.08h4.46V77.25l4.07.43c-.11.5-.4.86-1.33,1v8.21h1.33l1.62-2.38s1.8,1.69,2.88,2.88c-.11.4-.47.58-1,.58h-4.86Zm22.93-9.69s2.12,1.66,3.42,2.85c-.08.39-.47.57-1,.57H154.64l-.28-1h13.35a64.71,64.71,0,0,0,1.91-7.81L174,85.2a1.14,1.14,0,0,1-1.26.72,48,48,0,0,1-4.21,5.69h4ZM155.83,83,155.55,82h16.12l1.84-2.3s2.16,1.58,3.45,2.77A.86.86,0,0,1,176,83Zm17,11.73,3,2.31a2.33,2.33,0,0,1-1.37.61v10.9a3.23,3.23,0,0,1-2.41.8h-.47v-2.52H160.37v2c0,.21-.9.79-2.31.79h-.46V95.1l3.16,1.3h10.62ZM159.11,84c7,3.56,4.28,8.93,1.76,6.62a17.75,17.75,0,0,0-2.19-6.44Zm12.38,21.78V97.48H160.37v8.28ZM163,76.17c7.31,1.87,4.68,7.13,2.09,5a9,9,0,0,0-2.41-4.83Z"/></g></g><g id="EST._2021" data-name="EST. 2021" class="cls-2"><g class="cls-2"><path class="cls-3" d="M69.54,62.87l-.24,2.29h-7v-.45h.36a1,1,0,0,0,.51-.1.39.39,0,0,0,.16-.35V57.67a.38.38,0,0,0-.16-.35,1,1,0,0,0-.51-.11H62.3v-.45h7V59h-.46c-.09-1.08-.49-1.61-1.21-1.61H65.17v3H67a.47.47,0,0,0,.48-.28,2.81,2.81,0,0,0,.16-.82H68v2.87H67.6a2.89,2.89,0,0,0-.16-.83.48.48,0,0,0-.48-.28H65.17v3.4H67.9a.88.88,0,0,0,.83-.46,3.23,3.23,0,0,0,.35-1.18Z"/><path class="cls-3" d="M74.67,65.09a3.75,3.75,0,0,1-1-.51.27.27,0,0,0-.17-.07s0,0-.06,0a.36.36,0,0,0,0,.11v.52h-.61V62.73h.53a1.84,1.84,0,0,0,.43,1,2.34,2.34,0,0,0,.89.63,2.78,2.78,0,0,0,1.06.21A2.3,2.3,0,0,0,77,64.25a1.26,1.26,0,0,0,.51-1.1,1.19,1.19,0,0,0-.27-.78,2.14,2.14,0,0,0-.68-.53c-.27-.13-.64-.29-1.1-.46a12.47,12.47,0,0,1-1.36-.62,2.52,2.52,0,0,1-.87-.76,2,2,0,0,1-.36-1.21,1.81,1.81,0,0,1,.82-1.61A4,4,0,0,1,76,56.64a4.46,4.46,0,0,1,1.31.16,3.33,3.33,0,0,1,.93.44l.08,0a.19.19,0,0,0,.1,0c.05,0,.07,0,.07-.12V56.7h.63v2.46h-.53a1.91,1.91,0,0,0-.72-1.38,2.34,2.34,0,0,0-1.44-.46,2,2,0,0,0-1.15.31,1,1,0,0,0-.46.88,1,1,0,0,0,.25.68,1.87,1.87,0,0,0,.62.45c.24.12.59.26,1,.43a14.45,14.45,0,0,1,1.41.59,2.62,2.62,0,0,1,.94.82,2.25,2.25,0,0,1,.38,1.36,2,2,0,0,1-.9,1.83,4.14,4.14,0,0,1-2.36.61A5,5,0,0,1,74.67,65.09Z"/><path class="cls-3" d="M84.55,64.71h.36a1,1,0,0,0,.51-.11.37.37,0,0,0,.17-.34V57.42H84c-.33,0-.56.23-.7.69a5.06,5.06,0,0,0-.22,1.32h-.45V56.76h7.76v2.67h-.47a5,5,0,0,0-.21-1.32c-.14-.46-.37-.69-.7-.69H87.43v6.84c0,.3.22.45.67.45h.37v.45H84.55Z"/><path class="cls-3" d="M92.81,65a.93.93,0,0,1-.26-.68.9.9,0,0,1,1-.95.93.93,0,0,1,.69.27,1,1,0,0,1,0,1.36,1,1,0,0,1-1.39,0Z"/><path class="cls-3" d="M103.44,64.4a2.76,2.76,0,0,1,.46-1.07,5.35,5.35,0,0,1,.77-.86c.28-.24.65-.54,1.11-.89a11.13,11.13,0,0,0,1.59-1.46,2.18,2.18,0,0,0,.6-1.44,1.41,1.41,0,0,0-.34-1,1.37,1.37,0,0,0-1-.36,1.47,1.47,0,0,0-1,.33,1.27,1.27,0,0,0-.36,1A.42.42,0,0,1,105,59a.81.81,0,0,1-.51.15.89.89,0,0,1-.54-.17.56.56,0,0,1-.22-.49,1.32,1.32,0,0,1,.37-.9,2.72,2.72,0,0,1,1.06-.67,4.61,4.61,0,0,1,1.54-.24,3.93,3.93,0,0,1,2.16.54,1.9,1.9,0,0,1,.83,1.69,2.21,2.21,0,0,1-.72,1.62,10.39,10.39,0,0,1-1.92,1.42,12.22,12.22,0,0,0-1.46,1,1.54,1.54,0,0,0-.6,1V64h3.49a.68.68,0,0,0,.6-.29,2.42,2.42,0,0,0,.31-.77h.41l-.17,2.26h-6.2Z"/><path class="cls-3" d="M113.26,61q0-4.32,3.33-4.32T119.9,61q0,4.32-3.31,4.32T113.26,61Zm4.45,2.69a8.26,8.26,0,0,0,.34-2.69c0-2.44-.49-3.66-1.46-3.66a1.19,1.19,0,0,0-1.12,1,8.31,8.31,0,0,0-.35,2.71,8.2,8.2,0,0,0,.35,2.7,1.19,1.19,0,0,0,1.12,1C117.11,64.61,117.48,64.29,117.71,63.65Z"/><path class="cls-3" d="M123.12,64.4a2.76,2.76,0,0,1,.46-1.07,5.35,5.35,0,0,1,.77-.86c.28-.24.65-.54,1.11-.89a11.13,11.13,0,0,0,1.59-1.46,2.18,2.18,0,0,0,.6-1.44,1.41,1.41,0,0,0-.34-1,1.37,1.37,0,0,0-1-.36,1.47,1.47,0,0,0-1,.33,1.27,1.27,0,0,0-.36,1,.42.42,0,0,1-.19.37.81.81,0,0,1-.51.15.89.89,0,0,1-.54-.17.56.56,0,0,1-.22-.49,1.32,1.32,0,0,1,.37-.9,2.72,2.72,0,0,1,1.06-.67,4.61,4.61,0,0,1,1.54-.24,3.93,3.93,0,0,1,2.16.54,1.9,1.9,0,0,1,.83,1.69,2.21,2.21,0,0,1-.72,1.62,10.39,10.39,0,0,1-1.92,1.42,12.22,12.22,0,0,0-1.46,1,1.54,1.54,0,0,0-.6,1V64h3.49a.68.68,0,0,0,.6-.29,2.42,2.42,0,0,0,.31-.77h.41l-.17,2.26h-6.2Z"/><path class="cls-3" d="M134.17,64.71h.61c.45,0,.67-.15.67-.45V57.9l-1.53.67v-.82l3.37-1.35v7.86a.37.37,0,0,0,.17.34,1,1,0,0,0,.51.11h.6v.45h-4.4Z"/></g></g><g id="Group_30" data-name="Group 30"><path id="Path_33" data-name="Path 33" class="cls-4" d="M32.6,67c.15-.38.3-.75.46-1.12A73.74,73.74,0,0,1,145.37,35.42,77.69,77.69,0,0,1,170.07,67"/><path id="Path_34" data-name="Path 34" class="cls-4" d="M166.75,118.68a29.84,29.84,0,0,1-7.28,6.3c-14.86,9.09-39.4,4.13-55.92,3.2a137.42,137.42,0,0,0-23.3.66c-11.09,1.25-20.12,3-31.23-1.19a37.09,37.09,0,0,1-13.67-9"/></g></g></g></svg>