<svg xmlns="http://www.w3.org/2000/svg" viewBox="0 0 39.37 67.78"><defs><style>.cls-1{fill:#262626;}</style></defs><g id="Layer_2" data-name="Layer 2"><g id="Layer_1-2" data-name="Layer 1"><path class="cls-1" d="M34.79,0H4.58A4.59,4.59,0,0,0,0,4.58V63.2a4.59,4.59,0,0,0,4.58,4.58H34.79a4.59,4.59,0,0,0,4.58-4.58V4.58A4.59,4.59,0,0,0,34.79,0ZM14.85,3.3h9.67a.56.56,0,0,1,0,1.11H14.85a.56.56,0,0,1,0-1.11Zm4.84,62.19A2.29,2.29,0,1,1,22,63.2,2.29,2.29,0,0,1,19.69,65.49Zm16.5-6.19h-33v-52h33Z"/></g></g></svg>