<svg xmlns="http://www.w3.org/2000/svg" viewBox="0 0 26.49 32"><defs><style>.cls-1{fill:#f2d5c4;}</style></defs><g id="圖層_2" data-name="圖層 2"><g id="Layer_1" data-name="Layer 1"><path id="Path_46" data-name="Path 46" class="cls-1" d="M26.47,30.66,24.52,9a1.15,1.15,0,0,0-1.14-1.05h-4V6.12a6.12,6.12,0,1,0-12.24,0V7.93h-4A1.15,1.15,0,0,0,2,9L0,30.75A1.17,1.17,0,0,0,1.05,32H25.34a1.15,1.15,0,0,0,1.15-1.15A1.37,1.37,0,0,0,26.47,30.66ZM9.42,6.12A3.83,3.83,0,1,1,17.07,6V7.93H9.42ZM2.4,29.7,4.15,10.23h3v2a1.15,1.15,0,0,0,2.3,0v-2h7.65v2a1.15,1.15,0,0,0,2.3,0v-2h3L24.08,29.7Z"/></g></g></svg>