<?xml version="1.0" encoding="utf-8"?>
<!-- Generator: Adobe Illustrator 25.2.1, SVG Export Plug-In . SVG Version: 6.00 Build 0)  -->
<svg version="1.1" id="圖層_1" xmlns="http://www.w3.org/2000/svg" xmlns:xlink="http://www.w3.org/1999/xlink" x="0px" y="0px"
	 viewBox="0 0 1920 1080" style="enable-background:new 0 0 1920 1080;" xml:space="preserve">
<style type="text/css">
	.st0{opacity:0.3;}
	.st1{fill:#F2D5C4;}
</style>
<g class="st0">
	<path class="st1" d="M1874.1,231.9c0,30.3-25.6,46.2-71.8,63.5c-46.3,16.8-113.2,34.8-195.9,57.9c-82.7,22.4-181.2,48-290.6,65.4
		c-54.7,8.7-112.1,15.2-171.6,18.9c-59.5,3.9-121.1,5-184.2,5.5c-63.1,0.5-124.7-1.3-184.2-3c-59.5-1.9-116.9-3.7-171.6-5.7
		c-109.4-4-207.9-9.3-290.6-25.2c-82.7-15.1-149.6-42.5-195.9-76.3c-46.3-33.3-71.8-72.9-71.8-101c0-30.3,25.6-46.2,71.8-63.5
		c46.3-16.8,113.2-34.8,195.9-57.9c82.7-22.4,181.2-48,290.6-65.4c54.7-8.7,112.1-15.2,171.6-18.9c59.5-3.9,121.1-5,184.2-5.5
		c63.1-0.5,124.7,1.3,184.2,3c59.5,1.9,116.9,3.7,171.6,5.7c109.4,4,207.9,9.3,290.6,25.2c82.7,15.1,149.6,42.5,195.9,76.3
		C1848.6,164.2,1874.1,203.8,1874.1,231.9z"/>
</g>
</svg>
