<svg xmlns="http://www.w3.org/2000/svg" viewBox="0 0 90.77 90.77"><defs><style>.cls-1{fill:#f2aa6b;}.cls-2{fill:#262626;}</style></defs><g id="圖層_2" data-name="圖層 2"><g id="Layer_1" data-name="Layer 1"><circle class="cls-1" cx="45.39" cy="45.39" r="45.39"/><path class="cls-2" d="M78.63,41.4a2,2,0,0,0-1.78-1.79c-.54,0-13.1-1.16-20.42,6.16a18.81,18.81,0,0,0-3.66,5.32,30.65,30.65,0,0,0-7.66-14.57c-4.42-4.42-11-7.35-18.93-8.5a49.28,49.28,0,0,0-10.73-.4,2,2,0,0,0-1.79,1.79,49.28,49.28,0,0,0,.4,10.73c1.14,8,4.08,14.51,8.5,18.93s11,7.35,18.92,8.49a53.35,53.35,0,0,0,7.46.53l5.43,0c4.07,0,12.58-.72,18.11-6.25C79.79,54.5,78.69,41.93,78.63,41.4Zm-43.39,5a2,2,0,0,0-2.81,2.81L47.31,64.09c-5.73-.2-15.63-1.52-21.94-7.83-7.53-7.53-7.95-20.2-7.84-24.77,4.57-.12,17.22.3,24.77,7.84,6.29,6.3,7.62,16.2,7.82,21.94ZM69.67,59c-3.51,3.51-8.78,4.63-12.57,5l8.76-8.75a2,2,0,0,0-2.81-2.81l-8.76,8.76c.32-3.78,1.44-9,5-12.57,4.56-4.56,12.12-5.09,15.5-5.07C74.75,46.89,74.23,54.44,69.67,59Z"/></g></g></svg>